<svg width="200" height="44" viewBox="0 0 200 44" fill="none" xmlns="http://www.w3.org/2000/svg">
<path fill-rule="evenodd" clip-rule="evenodd" d="M31.6574 5C29.7395 5 27.9002 5.76189 26.544 7.11805L20 13.662V16.6574C20 18.7736 20.909 20.6776 22.3579 22C20.909 23.3224 20 25.2263 20 27.3426V30.338L26.544 36.882C27.9002 38.2381 29.7395 39 31.6574 39C33.7737 39 35.6776 38.091 37 36.6421C38.3224 38.091 40.2263 39 42.3426 39C44.2605 39 46.0998 38.2381 47.456 36.882L54 30.338V27.3426C54 25.2263 53.091 23.3224 51.6421 22C53.091 20.6776 54 18.7736 54 16.6574V13.662L47.456 7.11805C46.0998 5.76189 44.2605 5 42.3426 5C40.2263 5 38.3224 5.90902 37 7.35791C35.6776 5.90902 33.7737 5 31.6574 5ZM41.895 22C41.8135 21.9256 41.7335 21.8492 41.6551 21.7708L37 17.1157L32.3449 21.7708C32.2665 21.8492 32.1865 21.9256 32.105 22C32.1865 22.0744 32.2665 22.1508 32.3449 22.2292L37 26.8843L41.6551 22.2292C41.7335 22.1508 41.8135 22.0744 41.895 22ZM38.8889 30.338V31.7685C38.8889 33.6759 40.4352 35.2223 42.3426 35.2223C43.2586 35.2223 44.137 34.8584 44.7847 34.2107L50.2223 28.7731V27.3426C50.2223 25.4352 48.6759 23.8889 46.7685 23.8889C45.8526 23.8889 44.9741 24.2528 44.3264 24.9004L38.8889 30.338ZM35.1111 30.338L29.6736 24.9004C29.0259 24.2528 28.1475 23.8889 27.2315 23.8889C25.3241 23.8889 23.7778 25.4352 23.7778 27.3426V28.7731L29.2153 34.2107C29.863 34.8584 30.7415 35.2223 31.6574 35.2223C33.5648 35.2223 35.1111 33.6759 35.1111 31.7685V30.338ZM35.1111 12.2315V13.662L29.6736 19.0995C29.0259 19.7472 28.1475 20.1111 27.2315 20.1111C25.3241 20.1111 23.7778 18.5648 23.7778 16.6574V15.2269L29.2153 9.78934C29.863 9.14165 30.7415 8.77778 31.6574 8.77778C33.5648 8.77778 35.1111 10.3241 35.1111 12.2315ZM44.3264 19.0995L38.8889 13.662V12.2315C38.8889 10.3241 40.4352 8.77778 42.3426 8.77778C43.2586 8.77778 44.137 9.14165 44.7847 9.78934L50.2223 15.2269V16.6574C50.2223 18.5648 48.6759 20.1111 46.7685 20.1111C45.8526 20.1111 44.9741 19.7472 44.3264 19.0995Z" fill="white"/>
<path d="M70.993 30C66.1676 30 63 27.2941 63 22.4118C63 17.8529 66.138 14.7941 70.9338 14.7941C75.4927 14.7941 78.6011 17.2941 78.6011 21.7353C78.6011 22.2647 78.5715 22.6765 78.4827 23.1176H65.99C66.1084 25.9412 67.4998 27.4412 70.9042 27.4412C73.9829 27.4412 75.2559 26.4412 75.2559 24.7059V24.4706H78.4531V24.7353C78.4531 27.8529 75.3743 30 70.993 30ZM70.8746 17.2941C67.6182 17.2941 66.1972 18.7353 66.0196 21.3529H75.5815V21.2941C75.5815 18.5882 74.0125 17.2941 70.8746 17.2941Z" fill="white"/>
<path d="M85.3179 30C82.2687 30 80.3445 28.5882 80.3445 26.1765C80.3445 23.9118 82.1799 22.7353 85.0811 22.4118L91.7715 21.7059V20.8529C91.7715 18.4412 90.7058 17.5882 87.8934 17.5882C85.1699 17.5882 83.8377 18.4706 83.8377 20.6176V20.7353H80.6701V20.6176C80.6701 17.2941 83.4529 14.7941 88.1302 14.7941C92.8076 14.7941 94.9095 17.3235 94.9095 20.8235V29.7059H91.9787V26.0588H91.7715C91.0018 28.5294 88.6631 30 85.3179 30ZM83.5417 25.9706C83.5417 27.1471 84.341 27.7059 86.1764 27.7059C89.5216 27.7059 91.7715 26.4706 91.7715 23.5882L85.9988 24.2353C84.341 24.4412 83.5417 24.8235 83.5417 25.9706Z" fill="white"/>
<path d="M107.414 29.7059H104.039C100.872 29.7059 98.918 28.3235 98.918 24.7647V17.7353H96.4313V15.0882H98.918V11.8824H102.086V15.0882H107.414V17.7353H102.086V24.5882C102.086 26.3824 102.914 26.8529 104.75 26.8529H107.414V29.7059Z" fill="white"/>
<path d="M116.815 30C111.99 30 108.822 27.2941 108.822 22.4118C108.822 17.8529 111.96 14.7941 116.756 14.7941C121.315 14.7941 124.423 17.2941 124.423 21.7353C124.423 22.2647 124.394 22.6765 124.305 23.1176H111.812C111.93 25.9412 113.322 27.4412 116.726 27.4412C119.805 27.4412 121.078 26.4412 121.078 24.7059V24.4706H124.275V24.7353C124.275 27.8529 121.196 30 116.815 30ZM116.697 17.2941C113.44 17.2941 112.019 18.7353 111.842 21.3529H121.404V21.2941C121.404 18.5882 119.835 17.2941 116.697 17.2941Z" fill="white"/>
<path d="M130.015 29.7059H126.818V15.0882H129.749V19.0294H129.956C130.4 16.6765 131.998 14.7941 135.018 14.7941C138.363 14.7941 139.814 17.1765 139.814 19.9412V21.8529H136.646V20.5588C136.646 18.4706 135.758 17.5 133.567 17.5C131.051 17.5 130.015 18.8824 130.015 21.5V29.7059Z" fill="white"/>
<path d="M145.019 29.7059H141.822V15.0882H144.753V19.6176H144.96C145.404 17.1471 147.358 14.7941 151.088 14.7941C155.173 14.7941 157.186 17.5294 157.186 20.9118V29.7059H153.989V21.7647C153.989 19.0294 152.746 17.6471 149.697 17.6471C146.47 17.6471 145.019 19.2941 145.019 22.4706V29.7059Z" fill="white"/>
<path d="M164.357 30C161.308 30 159.384 28.5882 159.384 26.1765C159.384 23.9118 161.219 22.7353 164.12 22.4118L170.811 21.7059V20.8529C170.811 18.4412 169.745 17.5882 166.933 17.5882C164.209 17.5882 162.877 18.4706 162.877 20.6176V20.7353H159.709V20.6176C159.709 17.2941 162.492 14.7941 167.17 14.7941C171.847 14.7941 173.949 17.3235 173.949 20.8235V29.7059H171.018V26.0588H170.811C170.041 28.5294 167.702 30 164.357 30ZM162.581 25.9706C162.581 27.1471 163.38 27.7059 165.216 27.7059C168.561 27.7059 170.811 26.4706 170.811 23.5882L165.038 24.2353C163.38 24.4412 162.581 24.8235 162.581 25.9706Z" fill="white"/>
<path d="M180 29.7059H176.803V10H180V29.7059Z" fill="white"/>
</svg>
