<svg width="20" height="20" viewBox="0 0 20 20" fill="none" xmlns="http://www.w3.org/2000/svg">
<g clip-path="url(#clip0_105_37)">
<path d="M7.30468 0.859375C6.10155 0.96875 4.81249 1.44141 3.82811 2.14062C3.15233 2.62109 2.43358 3.37109 1.98436 4.0625C0.16405 6.86328 0.546862 10.5469 2.90624 12.9141C3.46483 13.4766 4.29296 14.0586 4.87499 14.3008L5.06249 14.3789L6.77733 13.2969C7.72264 12.6992 8.60155 12.1562 8.73436 12.0898C9.24608 11.8164 9.84764 11.8164 10.4101 12.0859C10.6758 12.2109 10.7891 12.3047 11.4062 12.9141L12.1055 13.6055L12.332 13.4336C12.457 13.3398 12.707 13.1133 12.8906 12.9297C15.5625 10.2656 15.707 6.08594 13.2266 3.23438C12.1445 1.99219 10.4961 1.10938 8.88671 0.902344C8.41014 0.839844 7.71874 0.824219 7.30468 0.859375ZM8.19921 3.82812C8.45311 3.95312 8.53124 4.13281 8.54686 4.59766L8.56249 4.99219L9.08202 5.00781C9.64843 5.01953 9.71874 5.04297 9.89843 5.28906C10.0117 5.44141 10.0117 5.80859 9.89843 5.96094C9.69921 6.23047 9.71483 6.22656 8.51561 6.25C7.49608 6.26953 7.42186 6.27344 7.31639 6.35156C7.05858 6.53906 7.01561 6.875 7.21483 7.10938C7.34374 7.26562 7.51561 7.30469 8.05468 7.30469C8.75389 7.30469 9.14452 7.45312 9.52343 7.87109C10.2734 8.6875 10.1055 9.94531 9.16796 10.5508C9.04686 10.6289 8.85936 10.7188 8.75389 10.7461L8.56249 10.793L8.54686 11.207C8.53124 11.6758 8.47264 11.8281 8.24218 11.9805C7.99608 12.1484 7.58983 12.0703 7.41014 11.8203C7.33593 11.7188 7.3203 11.6328 7.30468 11.2695L7.28514 10.8398L6.74999 10.8203C6.1328 10.7969 6.05858 10.7656 5.90624 10.457C5.83202 10.3125 5.8203 10.2422 5.83983 10.1133C5.87499 9.90625 6.08983 9.66406 6.28124 9.60938C6.36327 9.58984 6.86327 9.57031 7.40624 9.57031C8.36327 9.57031 8.39061 9.56641 8.51952 9.48047C8.60546 9.42188 8.67186 9.33203 8.71093 9.22656C8.76171 9.08203 8.76171 9.04297 8.71093 8.89844C8.67186 8.79297 8.60546 8.70312 8.51952 8.64453C8.40233 8.56641 8.33983 8.55469 7.95311 8.55469C7.17968 8.55469 6.71093 8.38672 6.32811 7.98438C5.78514 7.41016 5.68358 6.52344 6.08593 5.85938C6.30858 5.5 6.79686 5.14062 7.17968 5.05859L7.30468 5.03125V4.625C7.30468 4.19141 7.33593 4.07422 7.5078 3.91797C7.69921 3.73828 7.96093 3.70312 8.19921 3.82812Z" fill="#4D81E7"/>
<path d="M15.5469 10.0507C15.3594 10.1093 15.1055 10.3749 15.0469 10.5702C14.918 11.0116 15.0117 11.1952 15.7344 11.9218L16.3086 12.4999L14.6094 14.1991L12.9101 15.8983L11.4844 14.4725C10.5195 13.5077 10.0117 13.0311 9.91405 12.9882C9.74218 12.9179 9.41796 12.91 9.27733 12.9764C9.22265 12.9999 7.16796 14.2655 4.71483 15.7811C0.566397 18.3514 0.246085 18.5585 0.144522 18.7225C0.082022 18.8202 0.0234283 18.9686 0.0117095 19.0585C-0.0703217 19.6796 0.589835 20.1835 1.15233 19.9257C1.23827 19.8866 2.08202 19.3749 3.02733 18.7889C3.97265 18.203 5.1289 17.4882 5.60155 17.1991C6.0703 16.9061 7.1328 16.2499 7.96093 15.7343L9.46874 14.8007L10.9922 16.3202C12.4258 17.746 12.5312 17.8436 12.707 17.8866C12.9101 17.9374 13.1133 17.9139 13.3008 17.8241C13.3672 17.7929 14.3359 16.8475 15.457 15.7304L17.5 13.6952L18.0781 14.2655C18.8047 14.9882 18.9883 15.0819 19.4297 14.953C19.6367 14.8905 19.8906 14.6366 19.9531 14.4296C20.0195 14.1991 20.0195 10.8007 19.9531 10.5702C19.8906 10.3632 19.625 10.0975 19.4297 10.0429C19.2187 9.98426 15.7344 9.99207 15.5469 10.0507Z" fill="#4D81E7"/>
</g>
<defs>
<clipPath id="clip0_105_37">
<rect width="20" height="20" fill="white"/>
</clipPath>
</defs>
</svg>
