<svg width="20" height="20" viewBox="0 0 20 20" fill="none" xmlns="http://www.w3.org/2000/svg">
<g clip-path="url(#clip0_105_64)">
<path d="M9.55469 0.0625C9.05859 0.183594 8.57813 0.5625 8.33984 1.02344L8.22266 1.24609L7.43359 1.25781C6.57031 1.26953 6.54688 1.27734 6.35156 1.53906C6.27344 1.64453 6.26953 1.69141 6.26953 3.125C6.26953 4.55859 6.27344 4.60547 6.35156 4.71094C6.39453 4.76953 6.48047 4.85547 6.53906 4.89844C6.64453 4.98047 6.67188 4.98047 10 4.98047C13.3281 4.98047 13.3555 4.98047 13.4609 4.89844C13.5195 4.85547 13.6055 4.76953 13.6484 4.71094C13.7266 4.60547 13.7305 4.55859 13.7305 3.125C13.7305 1.69141 13.7266 1.64453 13.6484 1.53906C13.4531 1.27734 13.4297 1.26953 12.5664 1.25781L11.7773 1.24609L11.6602 1.02344C11.2656 0.257812 10.3906 -0.140625 9.55469 0.0625Z" fill="#4D81E7"/>
<path d="M3.37104 2.57422C3.08979 2.66797 2.87495 2.82812 2.73432 3.03906C2.48432 3.41797 2.49995 2.86328 2.49995 11.2383C2.49995 16.8945 2.51167 18.918 2.54682 19.0547C2.65229 19.4844 3.01557 19.8477 3.44526 19.9531C3.70698 20.0195 16.2929 20.0195 16.5546 19.9531C16.9843 19.8477 17.3476 19.4844 17.4531 19.0547C17.5195 18.793 17.5195 3.70703 17.4531 3.44531C17.3476 3.01562 16.9843 2.65234 16.5546 2.54688C16.4492 2.51953 16.0742 2.5 15.6874 2.5H14.9999V3.50391C14.9999 4.91797 14.9257 5.19141 14.4335 5.68359C14.1523 5.96484 13.8828 6.11719 13.5273 6.19141C13.1328 6.27734 6.86714 6.27734 6.4726 6.19141C6.11714 6.11719 5.8476 5.96484 5.56635 5.68359C5.07417 5.19141 4.99995 4.91797 4.99995 3.50391V2.5H4.28901C3.70307 2.50391 3.5351 2.51562 3.37104 2.57422ZM9.63667 7.5625C9.91401 7.69531 10.0624 8.03906 9.96479 8.32812C9.93354 8.42188 9.52339 8.85547 8.54292 9.83203C7.05464 11.3164 7.08198 11.2969 6.72651 11.2305C6.60542 11.2109 6.46479 11.0898 5.81245 10.4375C4.98432 9.60938 4.95698 9.5625 5.01948 9.23047C5.05464 9.03906 5.28901 8.80469 5.48042 8.76953C5.7851 8.71094 5.87495 8.76172 6.39448 9.26953L6.87885 9.74219L7.96089 8.66016C8.55464 8.06641 9.08589 7.5625 9.14057 7.54297C9.28901 7.48438 9.48432 7.49219 9.63667 7.5625ZM14.7109 8.85156C14.9179 9.00391 14.9804 9.12891 14.9804 9.375C14.9804 9.62109 14.9179 9.74609 14.7109 9.89844C14.6093 9.97656 14.5468 9.98047 13.2109 9.99219C12.2968 10 11.7656 9.98828 11.6718 9.96094C11.2773 9.84766 11.1249 9.30469 11.3945 8.98047C11.5898 8.75391 11.6015 8.75 13.1718 8.76172C14.5507 8.76953 14.6093 8.77344 14.7109 8.85156ZM9.63667 12.5625C9.91401 12.6953 10.0624 13.0391 9.96479 13.3281C9.93354 13.4219 9.52339 13.8555 8.54292 14.832C7.05464 16.3164 7.08198 16.2969 6.72651 16.2305C6.60542 16.2109 6.46479 16.0898 5.81245 15.4375C4.98432 14.6094 4.95698 14.5625 5.01948 14.2305C5.05464 14.0391 5.28901 13.8047 5.48042 13.7695C5.7851 13.7109 5.87495 13.7617 6.39448 14.2695L6.87885 14.7422L7.96089 13.6602C8.55464 13.0664 9.08589 12.5625 9.14057 12.543C9.28901 12.4844 9.48432 12.4922 9.63667 12.5625ZM14.7109 13.8516C14.9179 14.0039 14.9804 14.1289 14.9804 14.375C14.9804 14.6211 14.9179 14.7461 14.7109 14.8984C14.6093 14.9766 14.5468 14.9805 13.2109 14.9922C12.2968 15 11.7656 14.9883 11.6718 14.9609C11.2773 14.8477 11.1249 14.3047 11.3945 13.9805C11.5898 13.7539 11.6015 13.75 13.1718 13.7617C14.5507 13.7695 14.6093 13.7734 14.7109 13.8516Z" fill="#4D81E7"/>
</g>
<defs>
<clipPath id="clip0_105_64">
<rect width="20" height="20" fill="white"/>
</clipPath>
</defs>
</svg>
